<svg width="100" height="100" viewBox="0 0 100 100" fill="none" xmlns="http://www.w3.org/2000/svg">
<path d="M50 34V39.1667C50 40.5237 49.7284 41.8674 49.2007 43.1211C48.6731 44.3748 47.8996 45.5139 46.9246 46.4734C45.9496 47.433 44.7921 48.1941 43.5182 48.7134C42.2443 49.2327 40.8789 49.5 39.5 49.5C36.7152 49.5 34.0445 50.5887 32.0754 52.5266C30.1062 54.4644 29 57.0928 29 59.8333V65" stroke="#00CCF5" stroke-width="3" stroke-linecap="round" stroke-linejoin="round"/>
<path d="M50 34V39.1667C50 41.9072 51.0536 44.5356 52.9289 46.4734C54.8043 48.4113 57.3478 49.5 60 49.5C62.6522 49.5 65.1957 50.5887 67.0711 52.5266C68.9464 54.4644 70 57.0928 70 59.8333V65" stroke="#00CCF5" stroke-width="3" stroke-linecap="round" stroke-linejoin="round"/>
<path d="M41 25.5C41 27.7543 41.9482 29.9163 43.636 31.5104C45.3239 33.1045 47.6131 34 50 34C52.3869 34 54.6761 33.1045 56.364 31.5104C58.0518 29.9163 59 27.7543 59 25.5C59 23.2457 58.0518 21.0837 56.364 19.4896C54.6761 17.8955 52.3869 17 50 17C47.6131 17 45.3239 17.8955 43.636 19.4896C41.9482 21.0837 41 23.2457 41 25.5Z" stroke="black" stroke-width="3" stroke-linecap="round" stroke-linejoin="round"/>
<path d="M61 74C61 76.3869 61.9482 78.6761 63.636 80.364C65.3239 82.0518 67.6131 83 70 83C72.3869 83 74.6761 82.0518 76.364 80.364C78.0518 78.6761 79 76.3869 79 74C79 71.6131 78.0518 69.3239 76.364 67.636C74.6761 65.9482 72.3869 65 70 65C67.6131 65 65.3239 65.9482 63.636 67.636C61.9482 69.3239 61 71.6131 61 74Z" stroke="black" stroke-width="3" stroke-linecap="round" stroke-linejoin="round"/>
<path d="M20 74C20 76.3869 20.9482 78.6761 22.636 80.364C24.3239 82.0518 26.6131 83 29 83C31.3869 83 33.6761 82.0518 35.364 80.364C37.0518 78.6761 38 76.3869 38 74C38 71.6131 37.0518 69.3239 35.364 67.636C33.6761 65.9482 31.3869 65 29 65C26.6131 65 24.3239 65.9482 22.636 67.636C20.9482 69.3239 20 71.6131 20 74Z" stroke="black" stroke-width="3" stroke-linecap="round" stroke-linejoin="round"/>
</svg>
