<svg width="100" height="100" viewBox="0 0 100 100" fill="none" xmlns="http://www.w3.org/2000/svg">
<path d="M44 85C63.8825 85 80 68.8825 80 49C80 29.1178 63.8825 13 44 13C24.1178 13 8 29.1178 8 49C8 68.8825 24.1178 85 44 85Z" stroke="black" stroke-width="2.5" stroke-linecap="round" stroke-linejoin="round"/>
<path d="M44.5142 84.9999C60.1362 84.9999 72.7999 72.1059 72.7999 56.1999C72.7999 40.2941 60.1362 27.3999 44.5142 27.3999C28.8925 27.3999 16.2285 40.2941 16.2285 56.1999C16.2285 72.1059 28.8925 84.9999 44.5142 84.9999Z" stroke="black" stroke-width="2.5" stroke-linecap="round" stroke-linejoin="round"/>
<path d="M43.6041 73.9231C60.4278 73.9231 74.0657 60.2852 74.0657 43.4615C74.0657 26.6381 60.4278 13 43.6041 13C26.7807 13 13.1426 26.6381 13.1426 43.4615C13.1426 60.2852 26.7807 73.9231 43.6041 73.9231Z" stroke="black" stroke-width="2.5" stroke-linecap="round" stroke-linejoin="round"/>
<path d="M44.5139 73.6856C57.2956 73.6856 67.6568 63.3244 67.6568 50.5428C67.6568 37.7613 57.2956 27.3999 44.5139 27.3999C31.7325 27.3999 21.3711 37.7613 21.3711 50.5428C21.3711 63.3244 31.7325 73.6856 44.5139 73.6856Z" stroke="#00CCF5" stroke-width="2.5" stroke-linecap="round" stroke-linejoin="round"/>
</svg>
