<svg width="82" height="70" viewBox="0 0 82 70" fill="none" xmlns="http://www.w3.org/2000/svg">
<path d="M64.5754 21.0873C64.0119 21.0575 63.4473 21.0575 62.8838 21.0873C62.3 9.92074 53.4605 0.953467 42.3034 0.209662C31.1463 -0.534143 21.1946 7.18038 19.1338 18.1707C9.65404 18.0015 1.83208 25.5493 1.66294 35.029C1.49381 44.5087 9.04154 52.3307 18.5213 52.4998H23.1588C23.9642 52.4998 24.6171 51.8469 24.6171 51.0415C24.6171 50.2361 23.9642 49.5832 23.1588 49.5832H18.5213C10.9504 49.2395 4.9891 43.0014 4.9891 35.4228C4.9891 27.8441 10.9504 21.606 18.5213 21.2623H18.9588C18.9951 23.1175 19.2696 24.9604 19.7754 26.7457C19.9482 27.3739 20.524 27.8057 21.1754 27.7957H21.5838C22.357 27.5702 22.801 26.7605 22.5754 25.9873C22.0586 24.176 21.8033 22.3001 21.8171 20.4165V19.8623C23.118 9.96202 31.7932 2.71337 41.7671 3.19303C51.741 3.67269 59.6806 11.7204 60.0254 21.6998C55.6382 23.0463 52.0584 26.2426 50.2254 30.4498C49.9459 30.9341 49.968 31.5356 50.2821 31.9982C50.5963 32.4607 51.1473 32.7029 51.7005 32.6217C52.2537 32.5404 52.7118 32.1499 52.8796 31.6165C54.5176 27.9047 57.8178 25.1887 61.7754 24.2957C66.5077 23.2677 71.4131 25.0167 74.4275 28.8068C77.4419 32.5968 78.042 37.77 75.9754 42.1495C73.9087 46.529 69.534 49.3546 64.6921 49.4373H58.9754C58.17 49.4373 57.5171 50.0903 57.5171 50.8957C57.5171 51.7011 58.17 52.354 58.9754 52.354H64.5754C72.955 51.9922 79.5622 45.0934 79.5622 36.7061C79.5622 28.3187 72.955 21.42 64.5754 21.0582V21.0873Z" fill="#7764F0"/>
<path d="M41.242 35.0007C35.9957 34.9664 31.2022 37.9674 28.9412 42.7016C26.6803 47.4358 27.3593 53.0503 30.6837 57.1091L21.3795 66.3257C20.8201 66.9027 20.8201 67.8196 21.3795 68.3966C21.6607 68.6678 22.0389 68.8149 22.4295 68.8049C22.8118 68.8172 23.1819 68.6692 23.4503 68.3966L32.7545 59.0924C37.3942 62.9053 43.9862 63.2213 48.9694 59.8697C53.9525 56.5182 56.1454 50.2935 54.3635 44.5586C52.5815 38.8237 47.247 34.938 41.242 35.0007ZM41.242 59.3257C35.3302 59.3257 30.5378 54.5333 30.5378 48.6216C30.5378 42.7098 35.3302 37.9174 41.242 37.9174C47.1537 37.9174 51.9461 42.7098 51.9461 48.6216C51.8823 54.4925 47.1132 59.2226 41.242 59.2382V59.3257Z" fill="#7764F0"/>
<path d="M37.4795 40.5418C35.4333 41.6025 33.8234 43.3466 32.9295 45.471C32.7762 45.8262 32.7734 46.2284 32.9218 46.5856C33.0702 46.9429 33.3572 47.2248 33.717 47.3668C33.8995 47.4081 34.0888 47.4081 34.2712 47.3668C34.8552 47.3767 35.3865 47.0302 35.6129 46.4918C36.2496 44.9992 37.3832 43.7729 38.8212 43.021C39.538 42.6505 39.8188 41.769 39.4483 41.0522C39.0778 40.3354 38.1964 40.0546 37.4795 40.4251V40.5418Z" fill="#7764F0"/>
</svg>
