<svg width="80" height="80" viewBox="0 0 80 80" fill="none" xmlns="http://www.w3.org/2000/svg">
<g clip-path="url(#clip0_1320_681)">
<path d="M67.989 18.4018C67.9895 18.1601 67.9423 17.9207 67.8502 17.6973C67.758 17.4738 67.6228 17.2707 67.4522 17.0996C67.2815 16.9284 67.0789 16.7925 66.8557 16.6997C66.6326 16.6069 66.3933 16.5589 66.1516 16.5586H1.83742C1.59574 16.5589 1.35648 16.6069 1.13333 16.6997C0.91018 16.7925 0.707501 16.9284 0.536873 17.0996C0.366244 17.2707 0.231009 17.4738 0.138891 17.6973C0.0467735 17.9207 -0.000421121 18.1601 2.83109e-06 18.4018V28.8689H67.989V18.4018Z" fill="#EAE7FF"/>
<path d="M2.83188e-06 28.8691V73.6407C-0.000421158 73.8825 0.0467688 74.1219 0.138878 74.3454C0.230988 74.5689 0.366213 74.772 0.536833 74.9432C0.707454 75.1144 0.910127 75.2504 1.13328 75.3433C1.35644 75.4362 1.59571 75.4842 1.83742 75.4846H66.1523C66.3939 75.4843 66.6332 75.4363 66.8564 75.3435C67.0795 75.2507 67.2822 75.1148 67.4528 74.9436C67.6234 74.7725 67.7587 74.5694 67.8508 74.3459C67.9429 74.1225 67.9901 73.8831 67.9897 73.6414V28.8691H2.83188e-06Z" fill="#F8F7FC"/>
<path d="M23.6613 23.7408H18.7522C18.41 23.7408 18.0818 23.6049 17.8398 23.3629C17.5979 23.1209 17.4619 22.7927 17.4619 22.4505C17.4619 22.1083 17.5979 21.7801 17.8398 21.5381C18.0818 21.2961 18.41 21.1602 18.7522 21.1602H23.6613C24.0035 21.1602 24.3317 21.2961 24.5737 21.5381C24.8156 21.7801 24.9516 22.1083 24.9516 22.4505C24.9516 22.7927 24.8156 23.1209 24.5737 23.3629C24.3317 23.6049 24.0035 23.7408 23.6613 23.7408Z" fill="#44434A"/>
<path d="M78.7097 7.64987C78.7102 7.40818 78.663 7.16878 78.5709 6.94533C78.4787 6.72189 78.3435 6.51878 78.1729 6.34762C78.0022 6.17645 77.7996 6.04057 77.5764 5.94775C77.3533 5.85493 77.114 5.80698 76.8723 5.80664H12.5581C12.3164 5.80698 12.0772 5.85493 11.854 5.94775C11.6309 6.04057 11.4282 6.17645 11.2576 6.34762C11.0869 6.51878 10.9517 6.72189 10.8596 6.94533C10.7675 7.16878 10.7203 7.40818 10.7207 7.64987V18.117H78.7097V7.64987Z" fill="#7764F0"/>
<path d="M10.7207 18.1172V62.8888C10.7203 63.1305 10.7675 63.3699 10.8596 63.5933C10.9517 63.8168 11.0869 64.0199 11.2576 64.1911C11.4282 64.3622 11.6309 64.4981 11.854 64.5909C12.0772 64.6837 12.3164 64.7317 12.5581 64.732H76.873C77.1146 64.7317 77.3539 64.6837 77.5771 64.5909C77.8002 64.4981 78.0029 64.3622 78.1735 64.1911C78.3441 64.0199 78.4794 63.8168 78.5715 63.5933C78.6636 63.3699 78.7108 63.1305 78.7104 62.8888V18.1172H10.7207Z" fill="white"/>
<path d="M76.8726 4.51562H12.5584C11.7284 4.51733 10.933 4.84821 10.3466 5.43566C9.76023 6.02311 9.43083 6.81916 9.43066 7.64917V62.8885C9.43083 63.7185 9.76023 64.5146 10.3466 65.102C10.933 65.6895 11.7284 66.0204 12.5584 66.0221H76.8733C77.7033 66.0204 78.4987 65.6895 79.0851 65.102C79.6714 64.5146 80.0008 63.7185 80.001 62.8885V7.64917C80.0003 5.92143 78.5971 4.51562 76.8726 4.51562ZM77.4197 62.8885C77.4197 63.1937 77.1745 63.4414 76.8726 63.4414H12.5584C12.4126 63.4406 12.273 63.3819 12.1704 63.2782C12.0679 63.1745 12.0106 63.0344 12.0113 62.8885V19.4072H77.4197V62.8885ZM12.0113 16.8266V7.64917C12.0113 7.34401 12.2565 7.09627 12.5584 7.09627H76.8733C77.1745 7.09627 77.4203 7.34401 77.4203 7.64917V16.8266H12.0113Z" fill="#44434A"/>
<path d="M23.2042 12.9888H18.2952C17.953 12.9888 17.6248 12.8529 17.3828 12.6109C17.1408 12.3689 17.0049 12.0407 17.0049 11.6985C17.0049 11.3563 17.1408 11.0281 17.3828 10.7861C17.6248 10.5441 17.953 10.4082 18.2952 10.4082H23.2042C23.5465 10.4082 23.8747 10.5441 24.1166 10.7861C24.3586 11.0281 24.4946 11.3563 24.4946 11.6985C24.4946 12.0407 24.3586 12.3689 24.1166 12.6109C23.8747 12.8529 23.5465 12.9888 23.2042 12.9888ZM34.3823 12.9888H29.4733C29.1311 12.9888 28.8029 12.8529 28.5609 12.6109C28.3189 12.3689 28.1829 12.0407 28.1829 11.6985C28.1829 11.3563 28.3189 11.0281 28.5609 10.7861C28.8029 10.5441 29.1311 10.4082 29.4733 10.4082H34.3823C34.7245 10.4082 35.0527 10.5441 35.2947 10.7861C35.5367 11.0281 35.6726 11.3563 35.6726 11.6985C35.6726 12.0407 35.5367 12.3689 35.2947 12.6109C35.0527 12.8529 34.7245 12.9888 34.3823 12.9888Z" fill="white"/>
<path d="M25.4268 42.8444L37.6468 49.1379V46.6889L28.2403 41.9741L37.6468 37.2586V34.8095L25.4268 41.1031V42.8444ZM40.3551 49.9302H42.7177L49.9519 31.1992H47.5635L40.3551 49.9302ZM52.6074 34.8102V37.2592L62.0842 41.9741L52.6074 46.6882V49.1373L64.8268 42.8689V41.0779L52.6074 34.8102Z" fill="#44434A"/>
</g>
<defs>
<clipPath id="clip0_1320_681">
<rect width="80" height="80" fill="white"/>
</clipPath>
</defs>
</svg>
