<svg width="70" height="70" viewBox="0 0 70 70" fill="none" xmlns="http://www.w3.org/2000/svg">
<g clip-path="url(#clip0_1311_44)">
<path d="M68.3867 22.6543L49.4102 16.502V7.66992C49.4102 3.5957 46.0879 0.273438 42.0137 0.273438H7.66992C3.5957 0.273438 0.273438 3.5957 0.273438 7.66992V62.3301C0.273438 66.4043 3.5957 69.7266 7.66992 69.7266H42.0137C46.0879 69.7266 49.4102 66.4043 49.4102 62.3301V44.2422C52.2402 44.4883 54.9746 45.2676 57.4492 46.5254C57.9551 46.7852 58.7891 46.7441 59.3359 46.457C59.9238 46.1426 60.2656 45.4863 60.2656 44.8164V28.957L68.4004 26.3184C69.1934 26.0586 69.7402 25.3203 69.7402 24.4863C69.7402 23.6523 69.1934 22.9141 68.3867 22.6543ZM45.5547 62.3301C45.5547 64.2852 43.9688 65.8711 42.0137 65.8711H7.66992C5.71484 65.8711 4.12891 64.2852 4.12891 62.3301V55.1523H45.541V62.3301H45.5547ZM45.5547 51.2832H4.12891V7.66992C4.12891 5.71484 5.71484 4.12891 7.66992 4.12891H42.0137C43.9688 4.12891 45.5547 5.71484 45.5547 7.66992V16.4883L26.5645 22.6543C25.7715 22.9141 25.2246 23.6523 25.2246 24.4863C25.2246 25.3203 25.7578 26.0586 26.5645 26.3184L34.6992 28.957V44.8164C34.6992 45.4863 35.0547 46.1152 35.6289 46.457C36.2031 46.8125 36.9141 46.8398 37.5156 46.5254C39.9902 45.2539 42.7383 44.4883 45.5547 44.2422V51.2832ZM56.4102 41.877C53.7031 40.8789 51.1602 40.291 47.4824 40.291C43.627 40.291 41.2617 40.8789 38.5547 41.877V30.2148L46.8809 32.9082C47.2637 33.0312 47.6875 33.0312 48.0703 32.9082L56.4102 30.2012V41.877ZM47.4688 29.0391L33.4141 24.4863L47.4688 19.9199L61.5371 24.4863L47.4688 29.0391Z" fill="#7764F0"/>
<path d="M21.1914 62.4395H28.4922C29.5586 62.4395 30.4199 61.5781 30.4199 60.5117C30.4199 59.4453 29.5586 58.584 28.4922 58.584H21.1914C20.125 58.584 19.2637 59.4453 19.2637 60.5117C19.2637 61.5781 20.125 62.4395 21.1914 62.4395ZM29.873 9.25586C29.873 8.18945 29.0117 7.32812 27.9453 7.32812H21.7383C20.6719 7.32812 19.8105 8.18945 19.8105 9.25586C19.8105 10.3223 20.6719 11.1836 21.7383 11.1836H27.9316C29.0117 11.1836 29.873 10.3223 29.873 9.25586Z" fill="#7764F0"/>
<path d="M35.793 11.0742C36.7972 11.0742 37.6113 10.2601 37.6113 9.25586C37.6113 8.25161 36.7972 7.4375 35.793 7.4375C34.7887 7.4375 33.9746 8.25161 33.9746 9.25586C33.9746 10.2601 34.7887 11.0742 35.793 11.0742Z" fill="#7764F0"/>
</g>
<defs>
<clipPath id="clip0_1311_44">
<rect width="70" height="70" fill="white"/>
</clipPath>
</defs>
</svg>
